# xmcd
# Track frame offsets:
# 150
# 15043
# 32199
# 45620
# 58895
# 76572
# 94473
# 111235
# 125491
# 139818
# 154922
# 168864
# 186040
#
# Disc length: 2730 seconds
# Revision: 0
# Processed by: cddbd v1.5.1PL2 Copyright (c) Steve Scherf et al.
# Submitted via: VisiTrax 2.9.10.228 - For more info visit www.synapsa.com
#
DISCID=a20aa80d
DTITLE=Shirley Myers - A Little Time For Me
DYEAR=2003
DGENRE=
TTITLE0=A Little Time For Me
TTITLE1=Forever
TTITLE2=No Worries
TTITLE3=Steal Your Heart Away
TTITLE4=Never Felt Love Like This
TTITLE5=I`ll Think of You
TTITLE6=Wouldn`t Change A Thing
TTITLE7=Till I can Make It On My Own
TTITLE8=What Can I do
TTITLE9=(Lost His Love) On Our Last date
TTITLE10=Long Time Comin`
TTITLE11=Love On My mind
TTITLE12=What Our Flag Stands For
EXTD=
EXTT0=
EXTT1=
EXTT2=
EXTT3=
EXTT4=
EXTT5=
EXTT6=
EXTT7=
EXTT8=
EXTT9=
EXTT10=
EXTT11=
EXTT12=
PLAYORDER=
